<?xml version="1.0" encoding="UTF-8" standalone="no"?>
<svg
   xmlns:dc="http://purl.org/dc/elements/1.1/"
   xmlns:cc="http://creativecommons.org/ns#"
   xmlns:rdf="http://www.w3.org/1999/02/22-rdf-syntax-ns#"
   xmlns:svg="http://www.w3.org/2000/svg"
   xmlns="http://www.w3.org/2000/svg"
   xmlns:sodipodi="http://sodipodi.sourceforge.net/DTD/sodipodi-0.dtd"
   xmlns:inkscape="http://www.inkscape.org/namespaces/inkscape"
   height="21.957001"
   width="19.882999"
   id="svg3402"
   y="0px"
   x="0px"
   viewBox="0 0 19.882999 21.957001"
   version="1.1"
   inkscape:version="0.91 r13725"
   sodipodi:docname="refresh.svg">
  <sodipodi:namedview
     pagecolor="#ffffff"
     bordercolor="#666666"
     borderopacity="1"
     objecttolerance="10"
     gridtolerance="10"
     guidetolerance="10"
     inkscape:pageopacity="0"
     inkscape:pageshadow="2"
     inkscape:window-width="1680"
     inkscape:window-height="1021"
     id="namedview3502"
     showgrid="false"
     inkscape:zoom="10.74828"
     inkscape:cx="-1.7347867"
     inkscape:cy="10.9785"
     inkscape:window-x="0"
     inkscape:window-y="0"
     inkscape:window-maximized="1"
     inkscape:current-layer="svg3402" />
  <metadata
     id="metadata3414">
    <rdf:RDF>
      <cc:Work
         rdf:about="">
        <dc:format>image/svg+xml</dc:format>
        <dc:type
           rdf:resource="http://purl.org/dc/dcmitype/StillImage" />
        <dc:title />
      </cc:Work>
    </rdf:RDF>
  </metadata>
  <defs
     id="defs3412" />
  <path
     style="fill:#000000"
     id="path3404"
     d="m 17.941,6.975 -6.98,0 2.91,-2.9 C 12.734,3.416 11.368,3.027 9.913,3.027 c -2.197,0 -4.186,0.885 -5.632,2.319 -1.421,1.422 -2.3,3.387 -2.3,5.557 0,0.029 0,0.057 0,0.086 L 10e-4,10.985 C 0,10.944 0,10.895 0,10.846 0,8.145 1.097,5.701 2.871,3.934 4.683,2.13 7.182,1.015 9.941,1.015 c 2.009,0 3.881,0.591 5.449,1.609 L 17.961,0 Z m -16,8 6.98,0 -2.91,2.907 c 1.136,0.659 2.5,1.048 3.955,1.048 2.195,0 4.183,-0.885 5.626,-2.318 1.427,-1.419 2.31,-3.384 2.31,-5.556 0,-0.03 0,-0.06 0,-0.089 l 1.98,0.005 c 10e-4,0.041 10e-4,0.09 10e-4,0.139 0,2.701 -1.097,5.145 -2.871,6.912 -1.812,1.804 -4.311,2.919 -7.07,2.919 -2.009,0 -3.88,-0.591 -5.449,-1.609 l -2.571,2.624 z" />
</svg>
